<?xml version="1.0" encoding="UTF-8"?>
<svg version="1.1" xmlns="http://www.w3.org/2000/svg" width="512" height="512">
<path d="M0 0 C1.10792908 -0.00135452 2.21585815 -0.00270905 3.35736084 -0.00410461 C6.96033403 0.00087673 10.56143452 0.04498049 14.1640625 0.09375 C16.64306482 0.11259545 19.12206875 0.13123094 21.60107422 0.1496582 C76.95658958 0.71886132 130.64929332 11.86103805 180.7890625 35.59375 C182.19526855 36.25262207 182.19526855 36.25262207 183.62988281 36.92480469 C226.90995663 57.34621762 267.23539962 87.5188232 298.7890625 123.59375 C299.72518731 124.64329438 300.66138747 125.69277155 301.59765625 126.7421875 C310.83497052 137.20774476 320.69109326 148.42646133 327.48640442 160.64595032 C329.52383616 163.80067721 329.52383616 163.80067721 332.75932312 164.63676453 C333.91857803 164.77427628 335.07783295 164.91178802 336.2722168 165.0534668 C336.91539352 165.13730621 337.55857025 165.22114563 338.22123718 165.30752563 C340.34961572 165.57844672 342.48036829 165.81069058 344.61328125 166.04296875 C346.11737989 166.22663703 347.62118759 166.41270193 349.12471008 166.60102844 C353.09917272 167.09229745 357.07674727 167.55098402 361.05584717 168.00292969 C365.00767359 168.45728859 368.95577613 168.94173113 372.90429688 169.42382812 C384.40399564 170.8193776 395.90730961 172.17887066 407.42431641 173.42431641 C408.57688431 173.55264359 409.72945221 173.68097076 410.91694641 173.81318665 C413.01726745 174.04632019 415.11862672 174.27037568 417.22111511 174.483078 C422.30982793 175.05410641 426.3792011 175.77034397 430.7890625 178.59375 C432.40625891 181.82814283 432.35273905 185.0962389 431.7890625 188.59375 C428.39636076 193.2733386 423.20993476 196.21803026 418.55859375 199.57421875 C402.68787924 211.14708109 392.92637465 228.33484176 389.2109375 247.58984375 C387.43363164 260.24491975 389.84829837 268.3020837 394.96435547 279.66064453 C398.73942422 288.50936993 399.92307166 297.97364997 400.02734375 307.51953125 C400.03718292 308.2603746 400.04702209 309.00121796 400.05715942 309.76451111 C400.28836072 331.65858588 398.79890063 349.74759205 388.7890625 369.59375 C388.26570313 370.64046875 387.74234375 371.6871875 387.203125 372.765625 C374.64950586 395.91327396 352.31708066 413.21509432 327.25976562 420.92944336 C313.18216211 424.71453814 299.78809765 424.96476748 285.2890625 424.78125 C283.19402013 424.76616258 281.09896715 424.75248142 279.00390625 424.74023438 C273.93202361 424.70758112 268.86066433 424.65602723 263.7890625 424.59375 C263.81000977 425.17866211 263.83095703 425.76357422 263.85253906 426.36621094 C263.93586365 429.02521465 263.98777147 431.68394355 264.0390625 434.34375 C264.07257813 435.26414062 264.10609375 436.18453125 264.140625 437.1328125 C264.23915001 443.93103836 264.23915001 443.93103836 262.01953125 447.19921875 C258.6833064 449.28508963 255.53942056 449.4522657 251.7890625 448.59375 C249.2265625 446.53125 249.2265625 446.53125 246.7890625 443.59375 C245.67308024 442.48046988 244.54738194 441.37687589 243.4140625 440.28125 C238.83642435 435.70361185 234.38530614 430.98811546 230.7890625 425.59375 C226.14966604 424.29100459 221.33604172 424.14680549 216.5390625 423.96875 C215.77783081 423.93918213 215.01659912 423.90961426 214.2322998 423.87915039 C191.15641297 423.40833343 169.03086473 432.84288297 147.60058594 440.41162109 C146.46533981 440.81082606 146.46533981 440.81082606 145.30715942 441.21809578 C141.70786173 442.48515093 138.11598688 443.76738434 134.5357666 445.08743286 C127.8376872 447.51916552 121.9583978 449.6532938 114.7890625 448.59375 C111.59569636 445.97560683 110.10161413 443.56681745 108.73022461 439.70849609 C108.37983627 438.74003754 108.02944794 437.77157898 107.66844177 436.77377319 C107.30477005 435.73209991 106.94109833 434.69042664 106.56640625 433.6171875 C106.17965225 432.53676178 105.79289825 431.45633606 105.39442444 430.34317017 C104.16115717 426.88871421 102.94400852 423.42880909 101.7265625 419.96875 C100.90397942 417.662409 100.08042215 415.35641521 99.25585938 413.05078125 C98.46268178 410.82322266 97.67033738 408.59536719 96.87890625 406.3671875 C96.33036232 404.82289566 96.33036232 404.82289566 95.77073669 403.24740601 C93.60058758 397.07655289 91.6048903 390.87813079 89.7890625 384.59375 C85.4904119 385.37927604 83.38083014 386.70571621 80.90600586 390.17749023 C79.88026898 391.74161397 78.87241112 393.31755125 77.87890625 394.90234375 C77.32187012 395.76029037 76.76483398 396.618237 76.19091797 397.50218201 C74.35477436 400.33600898 72.54119334 403.18360983 70.7265625 406.03125 C68.8006109 409.01283109 66.86849424 411.99035415 64.93592834 414.96765137 C63.59862512 417.0284127 62.26315141 419.09036233 60.9294281 421.15344238 C53.67677764 432.35880611 46.21191377 443.41805952 38.7265625 454.46875 C37.47828625 456.31427165 36.23015421 458.15989085 34.98217773 460.00561523 C33.29665063 462.49824229 31.61080649 464.99064718 29.9230957 467.48179626 C29.43534668 468.20178299 28.94759766 468.92176971 28.44506836 469.66357422 C27.98977753 470.33370544 27.53448669 471.00383667 27.06539917 471.6942749 C26.23761148 472.92620856 25.42087461 474.16566833 24.61746216 475.41363525 C21.98692315 479.49481967 21.98692315 479.49481967 19.7890625 480.59375 C12.5820049 481.17496432 12.5820049 481.17496432 9.55078125 478.953125 C7.29129297 475.92711409 7.34466273 474.27447455 7.4765625 470.53125 C7.51330078 468.96697266 7.51330078 468.96697266 7.55078125 467.37109375 C7.73550003 464.44284681 7.99453874 461.55361389 8.29296875 458.63671875 C8.96420533 451.4226144 9.03291845 444.20810833 9.0390625 436.96875 C9.03973724 436.24753967 9.04041199 435.52632935 9.04110718 434.78326416 C8.96303051 381.78890921 -8.39189929 326.7790526 -41.90234375 285.21875 C-48.77406788 276.6156525 -48.77406788 276.6156525 -49.0234375 272.09375 C-48.2109375 268.59375 -48.2109375 268.59375 -46.7109375 266.09375 C-43.19864072 263.98637193 -40.15660829 263.96427863 -36.2109375 264.59375 C-32.48607332 266.01783189 -29.06622918 267.90649738 -25.5859375 269.84375 C-24.07422974 270.65912231 -24.07422974 270.65912231 -22.53198242 271.4909668 C-19.41609285 273.17615772 -16.31306251 274.88338112 -13.2109375 276.59375 C-11.40827323 277.57554399 -9.6049185 278.55607162 -7.80078125 279.53515625 C-4.21588724 281.48336713 -0.63599877 283.44041886 2.94140625 285.40234375 C10.62292334 289.60603455 18.34711242 293.73017764 26.07104492 297.85522461 C32.12887624 301.09152732 38.17797404 304.34253711 44.2109375 307.625 C45.41173418 308.27694698 46.61257974 308.92880393 47.81347656 309.58056641 C50.08304809 310.81355785 52.3507177 312.05005841 54.61621094 313.29052734 C55.63231445 313.8417627 56.64841797 314.39299805 57.6953125 314.9609375 C58.58541016 315.44675293 59.47550781 315.93256836 60.39257812 316.43310547 C65.17597049 318.74975658 67.87022595 318.58442448 73.0859375 317.37890625 C74.29121094 317.10498047 75.49648437 316.83105469 76.73828125 316.54882812 C78.61966797 316.10700195 78.61966797 316.10700195 80.5390625 315.65625 C81.80878906 315.36556641 83.07851562 315.07488281 84.38671875 314.77539062 C87.52278101 314.05621845 90.65667078 313.32871575 93.7890625 312.59375 C94.00808113 310.50870009 94.00808113 310.50870009 92.46313477 309.07250977 C91.85010498 308.48268311 91.2370752 307.89285645 90.60546875 307.28515625 C89.9297583 306.62644531 89.25404785 305.96773438 88.55786133 305.2890625 C87.82978271 304.58523438 87.1017041 303.88140625 86.3515625 303.15625 C80.9140248 297.80719031 75.73023976 292.45371341 71.0234375 286.4375 C69.38256181 284.34911276 67.7202004 282.32580899 65.9921875 280.3125 C9.5402819 213.91379375 -16.21410654 127.54033468 -16.56103516 41.54394531 C-16.57448199 38.56252097 -16.60257228 35.58176368 -16.64306641 32.60058594 C-16.69236276 28.96748765 -16.71714589 25.3350022 -16.72426224 21.70158386 C-16.73095705 20.32685075 -16.74613325 18.9521305 -16.77015305 17.57759094 C-16.94595126 6.93370047 -16.94595126 6.93370047 -14.37890625 2.25390625 C-9.60869614 -0.2458956 -5.31168405 -0.08165554 0 0 Z " fill="#010101" transform="translate(64.2109375,15.40625)"/>
<path d="M0 0 C19.7700311 11.36249118 38.89992307 31.55830546 52.91015625 49.3515625 C55.12069225 52.15295205 57.42927853 54.85189732 59.75 57.5625 C78.09103755 79.66217852 91.82914935 104.75155634 105.95625305 129.64143372 C109.02946586 135.05566446 112.11708911 140.46158491 115.20800781 145.86572266 C116.55959128 148.22885999 117.90913532 150.5931423 119.25683594 152.95849609 C122.30915172 158.31180005 125.37533855 163.65500763 128.49609375 168.96875 C139.1818713 187.22222299 145.60613877 203.77852367 145.4375 225.3125 C145.43412628 225.9935379 145.43075256 226.67457581 145.42727661 227.37625122 C145.35249001 237.80523541 144.71766854 247.18887474 141 257 C140.75862305 257.65419922 140.51724609 258.30839844 140.26855469 258.98242188 C132.00660864 280.9519237 116.97392944 298.34909789 95.76171875 308.55859375 C92.86622036 309.79847044 89.96293181 310.932504 87 312 C86.16339844 312.30679687 85.32679688 312.61359375 84.46484375 312.9296875 C67.45854923 318.89182748 44.85304089 318.42243839 28 312 C27.01 311.34 26.02 310.68 25 310 C24.59936523 307.98461914 24.59936523 307.98461914 24.55859375 305.53515625 C24.51895508 304.21161133 24.51895508 304.21161133 24.47851562 302.86132812 C24.46498047 301.93771484 24.45144531 301.01410156 24.4375 300.0625 C24.40303015 298.24070478 24.36040556 296.41904076 24.30859375 294.59765625 C24.29010376 293.38348022 24.29010376 293.38348022 24.27124023 292.14477539 C24.12446809 289.70361922 24.12446809 289.70361922 22 287 C13.33085866 283.36060039 3.67075397 281.6486719 -5.48590088 279.56427002 C-16.89037709 276.96505739 -28.24261441 274.27778105 -39.4765625 271.0078125 C-43.03178575 269.94432043 -43.03178575 269.94432043 -46.84765625 269.19921875 C-51.97368085 267.92699439 -56.28736546 265.3443859 -60.8125 262.6875 C-62.18293457 261.89170532 -62.18293457 261.89170532 -63.58105469 261.07983398 C-100.33328093 239.44016884 -134.66922529 210.63420127 -161 177 C-162.21429688 175.46085937 -162.21429688 175.46085937 -163.453125 173.890625 C-180 152.75728426 -180 152.75728426 -180 149 C-179.34854004 148.9906543 -178.69708008 148.98130859 -178.02587891 148.97167969 C-155.56850477 148.5721241 -133.19645577 146.90808689 -112 139 C-110.80117187 138.57074219 -109.60234375 138.14148438 -108.3671875 137.69921875 C-77.56447371 126.09097735 -51.57857597 106.38730715 -32 80 C-31.36143066 79.14390137 -31.36143066 79.14390137 -30.70996094 78.27050781 C-16.44436344 58.85189542 -7.22547836 36.2468138 -2.89453125 12.6640625 C-2.10466141 8.38936847 -1.09737996 4.20581746 0 0 Z " fill="#E4E5E5" transform="translate(303,107)"/>
<path d="M0 0 C19.7700311 11.36249118 38.89992307 31.55830546 52.91015625 49.3515625 C55.12069225 52.15295205 57.42927853 54.85189732 59.75 57.5625 C78.09103755 79.66217852 91.82914935 104.75155634 105.95625305 129.64143372 C109.02946586 135.05566446 112.11708911 140.46158491 115.20800781 145.86572266 C116.55959128 148.22885999 117.90913532 150.5931423 119.25683594 152.95849609 C122.30915172 158.31180005 125.37533855 163.65500763 128.49609375 168.96875 C139.1818713 187.22222299 145.60613877 203.77852367 145.4375 225.3125 C145.43412628 225.9935379 145.43075256 226.67457581 145.42727661 227.37625122 C145.35249001 237.80523541 144.71766854 247.18887474 141 257 C140.75862305 257.65419922 140.51724609 258.30839844 140.26855469 258.98242188 C136.28809851 269.5669305 130.715879 282.57392202 121 289 C117.29648542 283.77150882 114.03239244 278.35635583 110.9375 272.75 C96.72428458 247.17166023 80.17176347 222.67884056 63 199 C62.4436084 198.23252441 61.8872168 197.46504883 61.31396484 196.67431641 C48.85717212 179.53978679 35.81225349 162.95865869 22.07714844 146.82910156 C19.24181176 143.49329546 16.48018329 140.11049296 13.75 136.6875 C8.65972902 130.42536808 3.09871162 124.62286502 -2.44921875 118.76953125 C-5.13051624 115.93752852 -7.74302708 113.05936848 -10.3125 110.125 C-15.60143277 104.15957583 -21.35228664 98.63012292 -27.05786133 93.06689453 C-27.82380615 92.31263184 -28.58975098 91.55836914 -29.37890625 90.78125 C-30.42413452 89.7612793 -30.42413452 89.7612793 -31.49047852 88.72070312 C-33 87 -33 87 -33 85 C-33.66 84.67 -34.32 84.34 -35 84 C-34.12601562 82.88431641 -34.12601562 82.88431641 -33.234375 81.74609375 C-17.10027764 60.51315446 -7.01821918 36.35745714 -2.42724609 10.22900391 C-1.76582958 6.77829944 -0.88942686 3.39846508 0 0 Z " fill="#3EA6FE" transform="translate(303,107)"/>
<path d="M0 0 C4.87493903 0.97498781 7.37253016 2.38090414 11.1875 5.25 C12.43743091 6.16676088 13.68743446 7.08342271 14.9375 8 C15.5975 8.48855469 16.2575 8.97710937 16.9375 9.48046875 C19.75705769 11.55775652 22.60277881 13.59777491 25.44750977 15.64038086 C33.39162301 21.34888643 41.2754278 27.1370885 49.1394043 32.95532227 C54.61996453 37.00369029 60.14033684 40.99043204 65.72558594 44.89331055 C69.75018776 47.72972608 72.61411124 50.26619476 75.1875 54.4375 C78.71920071 59.47521122 83.5910288 61.09368363 89.1875 63.19921875 C93.99110225 65.26485736 97.97879911 68.42131172 102.125 71.5625 C102.96393799 72.19019287 103.80287598 72.81788574 104.66723633 73.46459961 C107.11745984 75.30197373 109.55972809 77.14943886 112 79 C112.62277832 79.46921875 113.24555664 79.9384375 113.88720703 80.421875 C121.16297596 85.90567641 128.24995205 91.60384046 135.30541992 97.36621094 C140.1467554 101.31904829 145.03292556 105.20570702 150 109 C148.89085687 117.67288309 141.01251406 124.66848031 134.6015625 130.12109375 C123.15866536 138.38540835 109.16686759 143.84578314 95 143 C95 148.28 95 153.56 95 159 C114.18713157 158.17769436 132.36311826 151.48354328 147 139 C147.82242188 138.37480469 148.64484375 137.74960938 149.4921875 137.10546875 C152.08743903 134.92658935 154.00376527 132.68495027 156.0625 130 C158.54419447 126.77625432 161.06661279 123.82232355 164 121 C164.47308594 121.44802979 164.94617188 121.89605957 165.43359375 122.35766602 C167.62093913 124.42748955 169.81045618 126.4950023 172 128.5625 C172.74378906 129.26697266 173.48757812 129.97144531 174.25390625 130.69726562 C178.54892141 134.74951906 182.89944139 138.7132682 187.37109375 142.57006836 C188.62194929 143.66812904 189.82305972 144.82305972 191 146 C190.8431995 150.18749572 187.79767884 152.76352541 185.0625 155.625 C184.56379395 156.15351563 184.06508789 156.68203125 183.55126953 157.2265625 C182.52514496 158.30963975 181.4955134 159.3894052 180.46240234 160.46582031 C179.170529 161.82110113 177.9053676 163.20173574 176.64453125 164.5859375 C160.8861554 181.3478588 139.50414917 192.54123947 118 200 C116.86433594 200.40089844 115.72867188 200.80179688 114.55859375 201.21484375 C92.69538814 208.18686479 69.65429899 207.39131795 47 207 C35.05623616 186.48056191 25.68951335 165.27026392 17.98510742 142.82177734 C17.00610323 140.01748232 15.97156293 137.23848634 14.9296875 134.45703125 C12.95703036 129.0472927 11.43602334 123.58908113 10.0625 118 C9.68399902 116.46182617 9.68399902 116.46182617 9.29785156 114.89257812 C3.3827191 90.29690813 -0.80416394 65.37583986 0 40 C12.80152162 41.64457504 24.03869592 51.04378895 32.1875 60.625 C39.75776657 70.65638204 47 83.10822521 47 96 C48.10408203 95.7834375 48.10408203 95.7834375 49.23046875 95.5625 C50.20628906 95.376875 51.18210938 95.19125 52.1875 95 C53.15042969 94.814375 54.11335938 94.62875 55.10546875 94.4375 C57.7934206 94.03122388 60.28771019 93.92066428 63 94 C57.26752097 70.18816402 46.77051355 48.82400142 25.83984375 34.73046875 C17.55059224 29.67938427 9.23831222 26.07943741 0 23 C0 15.41 0 7.82 0 0 Z " fill="#E4E4E5" transform="translate(65,33)"/>
<path d="M0 0 C36.09567818 -0.68463879 70.85960027 1.24117037 106 10 C106.7832666 10.19094238 107.5665332 10.38188477 108.37353516 10.57861328 C112.6138519 11.619356 116.81061649 12.77131155 121 14 C122.16660156 14.33128906 123.33320313 14.66257812 124.53515625 15.00390625 C153.19391268 23.50965919 181.78992225 35.7679515 207.08837891 51.80566406 C209.15464084 53.09661596 211.25245585 54.32463213 213.35546875 55.5546875 C214.75909881 56.40934936 216.16149023 57.26604955 217.5625 58.125 C218.21331543 58.49657227 218.86413086 58.86814453 219.53466797 59.25097656 C221.31640625 60.3828125 221.31640625 60.3828125 224 63 C224.43306004 66.1074537 224.44878902 67.9881562 224 71 C223.88922119 71.78681152 223.77844238 72.57362305 223.66430664 73.38427734 C223.25033731 75.97862033 222.76417672 78.54869408 222.25 81.125 C222.06590576 82.05441406 221.88181152 82.98382813 221.69213867 83.94140625 C217.32077704 105.50105898 209.33096496 124.80123353 197 143 C196.2348657 144.14659439 195.47049365 145.29369795 194.70703125 146.44140625 C194.14371094 147.28574219 193.58039063 148.13007813 193 149 C192.32582031 148.31679687 191.65164062 147.63359375 190.95703125 146.9296875 C187.60813284 143.58196704 184.1515592 140.35278434 180.6875 137.125 C179.69544556 136.19953369 179.69544556 136.19953369 178.68334961 135.25537109 C174.19718522 131.08268178 169.66924309 126.96811074 165 123 C161.98559376 125.89274859 159.43082815 128.94911493 156.875 132.25 C145.83164835 145.79747218 131.46066771 153.1675104 115 158 C114.2265625 158.2475 113.453125 158.495 112.65625 158.75 C107.10900254 160.38689269 101.72598804 160.1431497 96 160 C96 154.72 96 149.44 96 144 C97.98 143.79375 99.96 143.5875 102 143.375 C113.89916884 141.66306284 125.54882152 137.60123851 135 130 C135.76828125 129.39285156 136.5365625 128.78570312 137.328125 128.16015625 C142.52881272 123.81189914 146.92990428 119.10407268 150 113 C150 112.01 150 111.02 150 110 C148.32261398 108.29562767 148.32261398 108.29562767 146 106.625 C145.08089844 105.91859375 144.16179687 105.2121875 143.21484375 104.484375 C142.70034668 104.09056641 142.18584961 103.69675781 141.65576172 103.29101562 C139.89207544 101.91585003 138.16480354 100.50342863 136.44140625 99.078125 C126.95666428 91.23501979 117.20046419 83.83946906 107.23046875 76.625 C105.13931848 75.10149998 103.06728132 73.55566039 101 72 C95.52576586 67.91920728 90.59495726 64.40883622 83.8984375 62.62890625 C79.52806443 61.18110776 76.71898732 58.03054849 74.125 54.3125 C73 52 73 52 73 50 C72.35417969 49.80019531 71.70835937 49.60039063 71.04296875 49.39453125 C66.69262289 47.40085542 63.11892473 44.5647002 59.3125 41.6875 C57.60085179 40.40936392 55.88859803 39.13203843 54.17578125 37.85546875 C53.31033691 37.20884277 52.44489258 36.5622168 51.55322266 35.89599609 C47.73069871 33.05743031 43.86721685 30.27720091 40 27.5 C32.77924645 22.30448218 25.60627397 17.04667785 18.45507812 11.75585938 C16.98944883 10.67223598 15.52223644 9.59074951 14.05322266 8.51171875 C12.70878017 7.52185099 11.36966278 6.52469972 10.03662109 5.51953125 C6.92287088 3.2092494 4.8237594 1.95593985 1 1 C1 8.26 1 15.52 1 23 C0.67 23 0.34 23 0 23 C0 15.41 0 7.82 0 0 Z " fill="#3EA6FD" transform="translate(64,32)"/>
<path d="M0 0 C5.23272633 1.63958758 10.15196636 3.38952035 15 6 C13.65895923 11.09595491 11.22371485 15.12597125 8.4375 19.53515625 C7.02055798 21.96474977 5.97640489 24.36652336 5 27 C5.43828125 27.37769531 5.8765625 27.75539063 6.328125 28.14453125 C10.61369796 31.86392079 14.82587455 35.65620575 19 39.5 C22.30027687 42.53889412 25.60949314 45.56156073 29 48.5 C32.9308925 51.9067735 36.75196573 55.43002785 40.578125 58.953125 C43.96210815 62.06365496 47.39313872 65.10828332 50.8671875 68.1171875 C54.16380488 71.02738819 57.38982111 74.01506368 60.61328125 77.00585938 C63.11916836 79.3202779 65.66010268 81.55836846 68.3046875 83.7109375 C71.39050106 86.33164293 71.9059405 86.91831581 72.25 90.875 C72 94 72 94 71.0625 96.25 C60.2131356 105.45552131 26.98254951 104.29550212 13.04345703 103.25439453 C-1.56732954 101.43546507 -14.72068683 93.23007787 -24 82 C-30.16691126 73.35886426 -36.68446014 60.93062097 -36 50 C-36.99580078 50.24556641 -36.99580078 50.24556641 -38.01171875 50.49609375 C-41.62976557 51.10619576 -45.15843226 51.10760209 -48.8125 51.0625 C-51.184375 51.041875 -53.55625 51.02125 -56 51 C-56 45.72 -56 40.44 -56 35 C-53.999375 34.938125 -51.99875 34.87625 -49.9375 34.8125 C-34.12767566 33.661532 -20.398664 27.32207728 -9.33984375 15.87890625 C-5.38648254 11.01475397 -2.67671044 5.65477239 0 0 Z " fill="#030303" transform="translate(256,237)"/>
<path d="M0 0 C1.92695532 1.48292238 3.73579414 3.05035856 5.54589844 4.67382812 C6.96183117 5.87958205 8.38122592 7.08128002 9.80371094 8.27929688 C10.8986084 9.20621338 10.8986084 9.20621338 12.015625 10.15185547 C26.68450808 22.28549566 43.11867191 32.28777571 59.65527344 41.63476562 C61.26764893 42.55237671 61.26764893 42.55237671 62.91259766 43.48852539 C64.98435352 44.66209833 67.06374602 45.8223304 69.15185547 46.96655273 C75.45921123 50.53531459 79.79189615 54.2881217 84.23339844 59.98632812 C85.72910071 61.65685274 87.2284411 63.32413644 88.73339844 64.98632812 C89.48621094 65.82292969 90.23902344 66.65953125 91.01464844 67.52148438 C92.44926914 69.11522674 93.88658978 70.7065447 95.32714844 72.29492188 C95.95621094 72.99746094 96.58527344 73.7 97.23339844 74.42382812 C97.79027344 75.04128906 98.34714844 75.65875 98.92089844 76.29492188 C100.23339844 77.98632812 100.23339844 77.98632812 101.23339844 80.98632812 C96.54188955 81.08697105 91.85104037 81.1586093 87.15869141 81.20605469 C85.57036363 81.2258808 83.98210584 81.25295034 82.39404297 81.28808594 C62.05039502 81.72613789 45.94885234 77.53198107 30.72167969 63.25195312 C14.42472186 48.41327881 -4.61475333 41.91531966 -26.39160156 41.61132812 C-27.41511719 41.57394531 -28.43863281 41.5365625 -29.49316406 41.49804688 C-35.60809951 41.37961304 -35.60809951 41.37961304 -40.83300781 44.30273438 C-41.47109375 45.18832031 -42.10917969 46.07390625 -42.76660156 46.98632812 C-43.21648437 47.58058594 -43.66636719 48.17484375 -44.12988281 48.78710938 C-44.443125 49.28597656 -44.75636719 49.78484375 -45.07910156 50.29882812 C-45.63597656 51.18570313 -46.19285156 52.07257813 -46.76660156 52.98632812 C-47.70083801 49.97601069 -47.81110067 49.11982545 -46.76660156 45.98632812 C-45.6882704 32.86957857 -48.25802346 21.94217965 -55.59472656 11.00976562 C-56.76660156 8.98632812 -56.76660156 8.98632812 -56.76660156 5.98632812 C-55.28160156 6.97632813 -55.28160156 6.97632813 -53.76660156 7.98632812 C-47.14756927 8.66588211 -41.0230138 6.79032585 -34.64160156 5.17382812 C-32.40204771 4.62292702 -30.16246467 4.07214454 -27.92285156 3.52148438 C-25.87056433 3.01058397 -23.81845944 2.49895016 -21.76660156 1.98632812 C-19.22691564 1.35194199 -16.68604332 0.72663121 -14.14160156 0.11132812 C-12.79195312 -0.22511719 -12.79195312 -0.22511719 -11.41503906 -0.56835938 C-3.35297284 -1.92392803 -3.35297284 -1.92392803 0 0 Z " fill="#E3E3E3" transform="translate(178.7666015625,343.013671875)"/>
<path d="M0 0 C1.94177369 1.49905139 3.76735947 3.08096474 5.59228516 4.72021484 C6.98141786 5.91120743 8.37479766 7.09726086 9.77197266 8.27880859 C10.49223633 8.88837402 11.2125 9.49793945 11.95458984 10.12597656 C15.73614152 13.20817783 19.71370434 15.99857177 23.71728516 18.78271484 C24.4654248 19.30381836 25.21356445 19.82492187 25.984375 20.36181641 C27.72536078 21.56941294 29.47079929 22.77058656 31.21728516 23.97021484 C28.82916878 26.35833122 28.07907139 26.290167 24.80273438 26.54858398 C23.88773163 26.62528824 22.97272888 26.70199249 22.02999878 26.78102112 C20.54102585 26.89207436 20.54102585 26.89207436 19.02197266 27.00537109 C18.00056183 27.0889537 16.979151 27.17253632 15.92678833 27.25865173 C12.64924238 27.52521222 9.37087534 27.77935177 6.09228516 28.03271484 C2.83536396 28.29216042 -0.4213392 28.55415328 -3.677948 28.81748962 C-5.70565656 28.98060214 -7.73358377 29.14102599 -9.76174927 29.2983551 C-15.12725575 29.72092454 -20.44523536 30.28143544 -25.78271484 30.97021484 C-28.79418791 31.07715636 -31.76745866 31.01732822 -34.78271484 30.97021484 C-34.78271484 34.27021484 -34.78271484 37.57021484 -34.78271484 40.97021484 C-35.64896484 41.27958984 -36.51521484 41.58896484 -37.40771484 41.90771484 C-41.98923768 44.70753436 -44.09080578 48.41687929 -46.78271484 52.97021484 C-47.71695129 49.95989741 -47.82721395 49.10371217 -46.78271484 45.97021484 C-45.70438368 32.85346529 -48.27413674 21.92606637 -55.61083984 10.99365234 C-56.78271484 8.97021484 -56.78271484 8.97021484 -56.78271484 5.97021484 C-55.29771484 6.96021484 -55.29771484 6.96021484 -53.78271484 7.97021484 C-47.16368255 8.64976883 -41.03912708 6.77421257 -34.65771484 5.15771484 C-32.41816099 4.60681374 -30.17857795 4.05603126 -27.93896484 3.50537109 C-25.88667762 2.99447069 -23.83457272 2.48283688 -21.78271484 1.97021484 C-19.24302892 1.33582871 -16.7021566 0.71051793 -14.15771484 0.09521484 C-12.80806641 -0.24123047 -12.80806641 -0.24123047 -11.43115234 -0.58447266 C-3.36089195 -1.94141909 -3.36089195 -1.94141909 0 0 Z " fill="#2B7BD1" transform="translate(178.78271484375,343.02978515625)"/>
<path d="M0 0 C5.28 0 10.56 0 16 0 C17.35169479 18.923727 9.13192173 37.80181423 -3 52 C-3.763125 53.010625 -4.52625 54.02125 -5.3125 55.0625 C-16.18782501 66.94948315 -29.82337461 73.54447695 -45 78 C-45.7734375 78.2475 -46.546875 78.495 -47.34375 78.75 C-52.89099746 80.38689269 -58.27401196 80.1431497 -64 80 C-64 74.72 -64 69.44 -64 64 C-62.02 63.79375 -60.04 63.5875 -58 63.375 C-46.07860948 61.6598658 -34.4870038 57.58220577 -25 50 C-23.89978516 49.17628906 -23.89978516 49.17628906 -22.77734375 48.3359375 C-7.82266617 36.27985094 -2.07127735 18.45319822 0 0 Z " fill="#020303" transform="translate(224,112)"/>
<path d="M0 0 C2.0388862 1.28143801 3.67399118 2.62171442 5.4140625 4.28344727 C6.03684082 4.87270996 6.65961914 5.46197266 7.30126953 6.0690918 C7.95208496 6.69283691 8.60290039 7.31658203 9.2734375 7.95922852 C10.62935879 9.24267871 11.98611972 10.52524248 13.34375 11.80688477 C13.98731445 12.4154834 14.63087891 13.02408203 15.29394531 13.65112305 C17.78284454 15.98332422 20.35236005 18.21189333 22.9375 20.43579102 C25.84707253 22.99665073 28.68178892 25.63595571 31.5234375 28.27172852 C37.39802652 33.71632617 43.3253226 39.07031423 49.5234375 44.14672852 C50.3484375 44.84797852 51.1734375 45.54922852 52.0234375 46.27172852 C52.0234375 46.60172852 52.0234375 46.93172852 52.0234375 47.27172852 C34.4749255 49.88533669 18.6851223 52.00434489 3.2109375 41.58422852 C-6.07527535 34.39831132 -11.34749978 23.95607021 -13.5078125 12.43969727 C-13.7401163 10.39090685 -13.87185447 8.3309865 -13.9765625 6.27172852 C-12.07220982 5.04407978 -10.1525704 3.84011618 -8.2265625 2.64672852 C-7.15921875 1.97383789 -6.091875 1.30094727 -4.9921875 0.60766602 C-1.9765625 -0.72827148 -1.9765625 -0.72827148 0 0 Z " fill="#B0B0B0" transform="translate(248.9765625,274.728271484375)"/>
<path d="M0 0 C4.46341087 3.02306065 7.39332313 7.3440319 9.08203125 12.41015625 C9.82415958 19.25963577 9.16620512 24.75029802 5.08203125 30.41015625 C0.51892243 35.44752076 -4.61218975 37.42991757 -11.29296875 37.78515625 C-17.1737894 37.60724907 -21.65277451 35.81323188 -25.71484375 31.50390625 C-30.481518 25.42072197 -31.79276383 20.10581728 -30.91796875 12.41015625 C-29.014597 5.73017003 -24.77635899 1.88669584 -18.91796875 -1.58984375 C-12.33671051 -3.7835965 -6.19453217 -3.02675039 0 0 Z " fill="#010304" transform="translate(166.91796875,58.58984375)"/>
<path d="M0 0 C20.73296047 1.72132386 41.35928551 4.42927547 62 7 C61.04422173 8.11606414 60.08830251 9.23200757 59.13232422 10.34790039 C58.33385574 11.28008141 58.33385574 11.28008141 57.51925659 12.23109436 C55.733247 14.3105867 53.93263944 16.37679104 52.125 18.4375 C51.52945313 19.11683594 50.93390625 19.79617187 50.3203125 20.49609375 C49.88460937 20.99238281 49.44890625 21.48867187 49 22 C43.96395634 20.19618073 39.91567802 17.3656484 35.5234375 14.36328125 C34.69070313 13.91339844 33.85796875 13.46351563 33 13 C29.40145651 14.1995145 28.81383185 15.27925223 26.75 18.375 C26.20859375 19.16648438 25.6671875 19.95796875 25.109375 20.7734375 C23.63385054 23.07840656 23.63385054 23.07840656 25 26 C26.50393913 27.32377569 26.50393913 27.32377569 28.37890625 28.48046875 C28.98549072 28.87903076 29.5920752 29.27759277 30.21704102 29.68823242 C30.99104248 30.18299072 31.76504395 30.67774902 32.5625 31.1875 C35.016875 32.775625 37.47125 34.36375 40 36 C36.535 46.395 36.535 46.395 33 57 C30.20612437 53.50765547 28.13435062 50.70564176 26.0390625 46.88671875 C25.49145264 45.89687988 24.94384277 44.90704102 24.37963867 43.88720703 C23.80060791 42.83130371 23.22157715 41.77540039 22.625 40.6875 C17.01312804 30.54437258 11.25983284 20.50649339 5.35595703 10.5300293 C4.7989209 9.58426025 4.24188477 8.63849121 3.66796875 7.6640625 C3.17578857 6.83342285 2.6836084 6.0027832 2.17651367 5.14697266 C1 3 1 3 0 0 Z " fill="#E1E1E1" transform="translate(405,198)"/>
<path d="M0 0 C2.74805391 9.95218169 -5.51023808 21.86721205 -9.75 30.6875 C-10.44858429 32.15267666 -11.14650481 33.61816999 -11.84375 35.08398438 C-12.87746092 37.25632151 -13.91187604 39.42829929 -14.94934082 41.59884644 C-18.34807791 48.71001425 -21.68019585 55.85171203 -25 63 C-25.33 63 -25.66 63 -26 63 C-26.02505615 62.43716309 -26.0501123 61.87432617 -26.07592773 61.29443359 C-26.19455378 58.65453336 -26.31602703 56.01477071 -26.4375 53.375 C-26.47681641 52.49070312 -26.51613281 51.60640625 -26.55664062 50.6953125 C-26.59853516 49.79296875 -26.64042969 48.890625 -26.68359375 47.9609375 C-26.71187256 47.00558105 -26.74015137 46.05022461 -26.76928711 45.06591797 C-26.92953708 41.93551305 -26.92953708 41.93551305 -27.74829102 38.68798828 C-28.60003988 34.19694881 -29.32852236 30.25560739 -26.90359497 26.13848877 C-23.15113649 21.28212416 -18.59788254 17.23098763 -14.0625 13.125 C-12.70558964 11.84342854 -11.35203323 10.5582961 -10.00195312 9.26953125 C-6.70528895 6.13720919 -3.36671397 3.05683517 0 0 Z " fill="#E1E1E1" transform="translate(116,383)"/>
<path d="M0 0 C2.78828763 1.31997698 5.24324231 2.79529493 7.73046875 4.6171875 C8.44251465 5.13571289 9.15456055 5.65423828 9.88818359 6.18847656 C10.64695801 6.7450293 11.40573242 7.30158203 12.1875 7.875 C13.80799053 9.05551598 15.42909933 10.23518367 17.05078125 11.4140625 C17.87400879 12.01250977 18.69723633 12.61095703 19.54541016 13.22753906 C23.2973594 15.93682408 27.0858623 18.59311432 30.875 21.25 C45.46577115 31.51077005 45.46577115 31.51077005 51 36 C51 36.33 51 36.66 51 37 C43.68414264 36.19486861 36.3722317 35.35896789 29.0625 34.5 C27.92748047 34.36980469 26.79246094 34.23960937 25.62304688 34.10546875 C24.00172852 33.91404297 24.00172852 33.91404297 22.34765625 33.71875 C21.36804932 33.60466797 20.38844238 33.49058594 19.37915039 33.37304688 C17 33 17 33 15 32 C13.69878841 29.28689905 12.48667047 26.58010736 11.3125 23.8125 C7.80838734 15.72421776 4.03240144 7.8379803 0 0 Z " fill="#DCDCDC" transform="translate(56,321)"/>
<path d="M0 0 C10.80149258 2.30235896 21.41008635 4.84555764 32 8 C32 17.24 32 26.48 32 36 C24.12333966 29.24857685 24.12333966 29.24857685 20.5 25.125 C19.736875 24.26132812 18.97375 23.39765625 18.1875 22.5078125 C17.465625 21.68023437 16.74375 20.85265625 16 20 C15.401875 19.31679688 14.80375 18.63359375 14.1875 17.9296875 C13.06902839 16.6506945 11.95310798 15.36946567 10.83984375 14.0859375 C9.43357235 12.4915661 8.00483695 10.91698146 6.56640625 9.3515625 C5.74011719 8.45179688 4.91382813 7.55203125 4.0625 6.625 C3.29035156 5.79226563 2.51820313 4.95953125 1.72265625 4.1015625 C0 2 0 2 0 0 Z " fill="#ADADAD" transform="translate(280,398)"/>
<path d="M0 0 C3.06508533 2.08631859 6.00872383 4.06039277 9.375 5.625 C5.81259603 7.57882949 2.05990229 8.7851783 -1.796875 10.0078125 C-2.4792926 10.22694305 -3.16171021 10.44607361 -3.86480713 10.67184448 C-6.0339127 11.36759943 -8.20442065 12.05885829 -10.375 12.75 C-11.85035537 13.22235977 -13.32561689 13.69501279 -14.80078125 14.16796875 C-18.40777595 15.32371182 -22.01603464 16.47542609 -25.625 17.625 C-26.62919637 15.1683053 -27.62850501 12.70981647 -28.625 10.25 C-28.91117188 9.55132812 -29.19734375 8.85265625 -29.4921875 8.1328125 C-31.625 2.8515625 -31.625 2.8515625 -31.625 0.625 C-28.41863027 -0.05135064 -25.20963311 -0.71432448 -22 -1.375 C-21.09636719 -1.56578125 -20.19273437 -1.7565625 -19.26171875 -1.953125 C-6.58434016 -4.54412208 -6.58434016 -4.54412208 0 0 Z " fill="#C7C7C7" transform="translate(213.625,428.375)"/>
<path d="M0 0 C8.3124321 0.42741229 15.9901375 1.74190046 24 4 C18.72898586 10.41069287 12.90871848 16.18590512 7 22 C3.92061639 18.55003155 2.90032635 14.82690048 1.8125 10.4375 C1.63525391 9.76525391 1.45800781 9.09300781 1.27539062 8.40039062 C0.53430561 5.51902919 0 2.98706553 0 0 Z " fill="#DFDFDF" transform="translate(78,370)"/>
<path d="M0 0 C4.23322844 0.62045463 7.52290295 2.10523559 11.3125 4.0625 C12.38113281 4.61035156 13.44976562 5.15820312 14.55078125 5.72265625 C15.35902344 6.14417969 16.16726562 6.56570313 17 7 C17 7.66 17 8.32 17 9 C7.58997722 11.29612756 7.58997722 11.29612756 3 11 C2.49384702 9.73160474 1.99530901 8.46016898 1.5 7.1875 C1.2215625 6.47980469 0.943125 5.77210938 0.65625 5.04296875 C0 3 0 3 0 0 Z " fill="#BEBEBE" transform="translate(173,403)"/>
<path d="M0 0 C2.625 0.375 2.625 0.375 5 1 C5.625 3.375 5.625 3.375 6 6 C5.34 6.66 4.68 7.32 4 8 C1.375 7.625 1.375 7.625 -1 7 C-1.625 4.625 -1.625 4.625 -2 2 C-1.34 1.34 -0.68 0.68 0 0 Z " fill="#777777" transform="translate(154,72)"/>
</svg>
